<svg width="16" height="16" viewBox="0 0 16 16" fill="none" xmlns="http://www.w3.org/2000/svg">
<path fill-rule="evenodd" clip-rule="evenodd" d="M8 9.41462L11.5353 12.95C11.7229 13.1375 11.9774 13.2429 12.2427 13.2429C12.508 13.2429 12.7624 13.1375 12.95 12.95C13.1376 12.7624 13.243 12.5079 13.243 12.2426C13.243 11.9773 13.1376 11.7229 12.95 11.5353L9.41333 7.99995L12.9493 4.46462C13.0422 4.37173 13.1158 4.26146 13.166 4.14012C13.2163 4.01877 13.2421 3.88872 13.2421 3.75738C13.2421 3.62605 13.2162 3.49601 13.1659 3.37468C13.1156 3.25336 13.0419 3.14313 12.949 3.05028C12.8561 2.95744 12.7458 2.8838 12.6245 2.83357C12.5031 2.78334 12.3731 2.7575 12.2418 2.75753C12.1104 2.75756 11.9804 2.78346 11.8591 2.83375C11.7377 2.88404 11.6275 2.95773 11.5347 3.05062L8 6.58595L4.46467 3.05062C4.37247 2.95507 4.26216 2.87883 4.14018 2.82637C4.0182 2.7739 3.88699 2.74625 3.75421 2.74504C3.62144 2.74382 3.48974 2.76906 3.36683 2.81928C3.24391 2.86951 3.13222 2.94371 3.03828 3.03756C2.94435 3.1314 2.87004 3.24302 2.8197 3.36589C2.76936 3.48876 2.744 3.62043 2.74509 3.75321C2.74618 3.88599 2.7737 4.01722 2.82605 4.13925C2.87841 4.26128 2.95453 4.37166 3.05 4.46395L6.58667 7.99995L3.05067 11.536C2.9552 11.6282 2.87907 11.7386 2.82672 11.8607C2.77437 11.9827 2.74685 12.1139 2.74576 12.2467C2.74467 12.3795 2.77003 12.5111 2.82037 12.634C2.87071 12.7569 2.94501 12.8685 3.03895 12.9623C3.13289 13.0562 3.24457 13.1304 3.36749 13.1806C3.49041 13.2308 3.6221 13.2561 3.75488 13.2549C3.88766 13.2536 4.01886 13.226 4.14084 13.1735C4.26282 13.1211 4.37313 13.0448 4.46533 12.9493L8 9.41462Z" fill="white"/>
</svg>
